<svg width="16" height="15" viewBox="0 0 16 15" fill="none" xmlns="http://www.w3.org/2000/svg">
<path d="M13.587 10.7863C13.9434 10.7863 14.2656 10.5078 14.2656 10.0971C14.2656 9.69333 13.9434 9.41486 13.587 9.41486H5.79949C5.51157 9.41486 5.32648 9.20601 5.28535 8.89273L5.17566 8.18264H13.6624C14.7455 8.18264 15.3213 7.52127 15.479 6.42132L15.9726 3.05882C15.9863 2.96135 16 2.843 16 2.75946C16 2.30695 15.7052 1.99368 15.1637 1.99368H4.30506L4.20908 1.31839C4.11997 0.67095 3.84576 0.34375 3.03685 0.34375H0.733505C0.335904 0.34375 0 0.684874 0 1.09561C0 1.49939 0.335904 1.84052 0.733505 1.84052H2.76949L3.80463 9.03893C3.9623 10.125 4.53813 10.7863 5.62125 10.7863H13.587ZM6.19023 14.3438C6.88261 14.3438 7.43788 13.7799 7.43788 13.0767C7.43788 12.3736 6.88261 11.8097 6.19023 11.8097C5.49786 11.8097 4.94259 12.3736 4.94259 13.0767C4.94259 13.7799 5.49786 14.3438 6.19023 14.3438ZM12.4764 14.3438C13.1688 14.3438 13.7241 13.7799 13.7241 13.0767C13.7241 12.3736 13.1688 11.8097 12.4764 11.8097C11.7841 11.8097 11.2219 12.3736 11.2219 13.0767C11.2219 13.7799 11.7841 14.3438 12.4764 14.3438Z" fill="white"/>
</svg>
